<mxfile host="app.diagrams.net" agent="Mozilla/5.0 (Windows NT 10.0; Win64; x64) AppleWebKit/537.36 (KHTML, like Gecko) Chrome/135.0.0.0 Safari/537.36" version="26.3.0">
  <diagram id="WI9T0HZ2pTsCkuznbFz-" name="Page-1">
    <mxGraphModel dx="1042" dy="623" grid="1" gridSize="10" guides="1" tooltips="1" connect="1" arrows="1" fold="1" page="1" pageScale="1" pageWidth="1169" pageHeight="827" math="0" shadow="0">
      <root>
        <mxCell id="0" />
        <mxCell id="1" parent="0" />
        <mxCell id="6wiXWDzP_ZQOOk_hHA65-2" value="Athena Database" style="image;html=1;image=img/lib/clip_art/computers/Database_128x128.png" parent="1" vertex="1">
          <mxGeometry x="230" y="460" width="120" height="140" as="geometry" />
        </mxCell>
        <mxCell id="6wiXWDzP_ZQOOk_hHA65-8" style="edgeStyle=orthogonalEdgeStyle;rounded=0;orthogonalLoop=1;jettySize=auto;html=1;exitX=0.5;exitY=1;exitDx=0;exitDy=0;entryX=0.5;entryY=0;entryDx=0;entryDy=0;strokeWidth=2;" parent="1" source="6wiXWDzP_ZQOOk_hHA65-5" target="6wiXWDzP_ZQOOk_hHA65-2" edge="1">
          <mxGeometry relative="1" as="geometry" />
        </mxCell>
        <mxCell id="6wiXWDzP_ZQOOk_hHA65-10" style="edgeStyle=orthogonalEdgeStyle;rounded=0;orthogonalLoop=1;jettySize=auto;html=1;exitX=1;exitY=0.5;exitDx=0;exitDy=0;startArrow=none;startFill=0;strokeWidth=2;" parent="1" source="6wiXWDzP_ZQOOk_hHA65-5" target="33jsqWO7zJBfow-gnC39-2" edge="1">
          <mxGeometry relative="1" as="geometry">
            <mxPoint x="590" y="330" as="targetPoint" />
          </mxGeometry>
        </mxCell>
        <mxCell id="6wiXWDzP_ZQOOk_hHA65-5" value="Athena Server" style="aspect=fixed;perimeter=ellipsePerimeter;html=1;align=center;shadow=0;dashed=0;spacingTop=3;image;image=img/lib/active_directory/generic_server.svg;" parent="1" vertex="1">
          <mxGeometry x="262" y="270" width="56" height="100" as="geometry" />
        </mxCell>
        <mxCell id="33jsqWO7zJBfow-gnC39-2" value="Apollo FTP Site" style="outlineConnect=0;fontColor=#232F3E;gradientColor=none;fillColor=#116D5B;strokeColor=none;dashed=0;verticalLabelPosition=bottom;verticalAlign=top;align=center;html=1;fontSize=12;fontStyle=0;aspect=fixed;shape=mxgraph.aws4.transfer_for_ftp_resource;" parent="1" vertex="1">
          <mxGeometry x="490" y="281" width="76" height="78" as="geometry" />
        </mxCell>
        <mxCell id="33jsqWO7zJBfow-gnC39-6" style="edgeStyle=orthogonalEdgeStyle;rounded=0;orthogonalLoop=1;jettySize=auto;html=1;exitX=0.5;exitY=1;exitDx=0;exitDy=0;entryX=0.5;entryY=0;entryDx=0;entryDy=0;strokeWidth=2;" parent="1" source="33jsqWO7zJBfow-gnC39-4" target="6wiXWDzP_ZQOOk_hHA65-5" edge="1">
          <mxGeometry relative="1" as="geometry">
            <Array as="points">
              <mxPoint x="430" y="190" />
              <mxPoint x="290" y="190" />
            </Array>
          </mxGeometry>
        </mxCell>
        <mxCell id="33jsqWO7zJBfow-gnC39-7" value="Scheduled Sync" style="edgeLabel;html=1;align=center;verticalAlign=middle;resizable=0;points=[];fontSize=12;" parent="33jsqWO7zJBfow-gnC39-6" vertex="1" connectable="0">
          <mxGeometry x="-0.1226" relative="1" as="geometry">
            <mxPoint x="-24" as="offset" />
          </mxGeometry>
        </mxCell>
        <mxCell id="33jsqWO7zJBfow-gnC39-4" value="" style="shape=image;html=1;verticalAlign=top;verticalLabelPosition=bottom;labelBackgroundColor=#ffffff;imageAspect=0;aspect=fixed;image=https://cdn4.iconfinder.com/data/icons/logos-brands-5/24/fitbit-128.png" parent="1" vertex="1">
          <mxGeometry x="400" y="40" width="60" height="60" as="geometry" />
        </mxCell>
        <mxCell id="33jsqWO7zJBfow-gnC39-10" style="edgeStyle=orthogonalEdgeStyle;rounded=0;orthogonalLoop=1;jettySize=auto;html=1;exitX=0.5;exitY=1;exitDx=0;exitDy=0;entryX=0.5;entryY=0;entryDx=0;entryDy=0;strokeWidth=2;" parent="1" source="33jsqWO7zJBfow-gnC39-9" target="6wiXWDzP_ZQOOk_hHA65-5" edge="1">
          <mxGeometry relative="1" as="geometry" />
        </mxCell>
        <mxCell id="33jsqWO7zJBfow-gnC39-9" value="Self-reporting Form" style="shape=image;html=1;verticalAlign=top;verticalLabelPosition=bottom;labelBackgroundColor=#ffffff;imageAspect=0;aspect=fixed;image=https://cdn0.iconfinder.com/data/icons/logos-brands-in-colors/128/react-128.png" parent="1" vertex="1">
          <mxGeometry x="257.5" y="45" width="65" height="65" as="geometry" />
        </mxCell>
        <mxCell id="33jsqWO7zJBfow-gnC39-12" style="edgeStyle=orthogonalEdgeStyle;rounded=0;orthogonalLoop=1;jettySize=auto;html=1;entryX=0.5;entryY=0;entryDx=0;entryDy=0;sourcePerimeterSpacing=24;startSize=35;targetPerimeterSpacing=18;endSize=6;strokeWidth=2;" parent="1" target="6wiXWDzP_ZQOOk_hHA65-5" edge="1">
          <mxGeometry relative="1" as="geometry">
            <mxPoint x="160" y="130" as="sourcePoint" />
            <Array as="points">
              <mxPoint x="160" y="190" />
              <mxPoint x="290" y="190" />
            </Array>
          </mxGeometry>
        </mxCell>
        <mxCell id="33jsqWO7zJBfow-gnC39-11" value="Alpha App" style="outlineConnect=0;dashed=0;verticalLabelPosition=bottom;verticalAlign=top;align=center;html=1;shape=mxgraph.aws3.mobile_client;fillColor=#D2D3D3;gradientColor=none;" parent="1" vertex="1">
          <mxGeometry x="140" y="40" width="40.5" height="63" as="geometry" />
        </mxCell>
      </root>
    </mxGraphModel>
  </diagram>
</mxfile>
